<mxfile host="app.diagrams.net" modified="2021-05-22T13:55:46.348Z" agent="5.0 (Windows NT 10.0; Win64; x64) AppleWebKit/537.36 (KHTML, like Gecko) Chrome/90.0.4430.212 Safari/537.36" etag="UZOV6n19xfyJuETTnbQo" version="14.7.0" type="github">
  <diagram id="h5wG69jUnX-wgpqaN0SR" name="Page-1">
    <mxGraphModel dx="1422" dy="762" grid="0" gridSize="10" guides="1" tooltips="1" connect="1" arrows="1" fold="1" page="0" pageScale="1" pageWidth="827" pageHeight="1169" background="none" math="0" shadow="1">
      <root>
        <mxCell id="0" />
        <mxCell id="1" parent="0" />
        <mxCell id="7YHZf2KEgaN3K6T-sw89-8" value="" style="edgeStyle=orthogonalEdgeStyle;orthogonalLoop=1;jettySize=auto;html=1;" parent="1" source="7YHZf2KEgaN3K6T-sw89-1" target="7YHZf2KEgaN3K6T-sw89-7" edge="1">
          <mxGeometry relative="1" as="geometry" />
        </mxCell>
        <mxCell id="7YHZf2KEgaN3K6T-sw89-1" value="로그인 페이지" style="whiteSpace=wrap;html=1;fillColor=#fff2cc;strokeColor=#d6b656;" parent="1" vertex="1">
          <mxGeometry x="360" y="80" width="120" height="70" as="geometry" />
        </mxCell>
        <mxCell id="7YHZf2KEgaN3K6T-sw89-32" value="" style="edgeStyle=orthogonalEdgeStyle;orthogonalLoop=1;jettySize=auto;html=1;" parent="1" source="7YHZf2KEgaN3K6T-sw89-3" target="7YHZf2KEgaN3K6T-sw89-31" edge="1">
          <mxGeometry relative="1" as="geometry" />
        </mxCell>
        <mxCell id="7YHZf2KEgaN3K6T-sw89-3" value="회원가입" style="whiteSpace=wrap;html=1;fillColor=#fff2cc;strokeColor=#d6b656;" parent="1" vertex="1">
          <mxGeometry x="150" y="200" width="120" height="60" as="geometry" />
        </mxCell>
        <mxCell id="7YHZf2KEgaN3K6T-sw89-16" value="" style="edgeStyle=orthogonalEdgeStyle;orthogonalLoop=1;jettySize=auto;html=1;" parent="1" source="7YHZf2KEgaN3K6T-sw89-5" target="7YHZf2KEgaN3K6T-sw89-15" edge="1">
          <mxGeometry relative="1" as="geometry" />
        </mxCell>
        <mxCell id="7YHZf2KEgaN3K6T-sw89-5" value="로그인" style="whiteSpace=wrap;html=1;fillColor=#fff2cc;strokeColor=#d6b656;" parent="1" vertex="1">
          <mxGeometry x="520" y="200" width="120" height="60" as="geometry" />
        </mxCell>
        <mxCell id="7YHZf2KEgaN3K6T-sw89-9" value="" style="edgeStyle=orthogonalEdgeStyle;orthogonalLoop=1;jettySize=auto;html=1;" parent="1" source="7YHZf2KEgaN3K6T-sw89-7" target="7YHZf2KEgaN3K6T-sw89-3" edge="1">
          <mxGeometry relative="1" as="geometry">
            <Array as="points">
              <mxPoint x="330" y="230" />
              <mxPoint x="330" y="230" />
            </Array>
          </mxGeometry>
        </mxCell>
        <mxCell id="7YHZf2KEgaN3K6T-sw89-10" value="" style="edgeStyle=orthogonalEdgeStyle;orthogonalLoop=1;jettySize=auto;html=1;" parent="1" source="7YHZf2KEgaN3K6T-sw89-7" target="7YHZf2KEgaN3K6T-sw89-5" edge="1">
          <mxGeometry relative="1" as="geometry" />
        </mxCell>
        <mxCell id="7YHZf2KEgaN3K6T-sw89-7" value="회원유무" style="rhombus;whiteSpace=wrap;html=1;fillColor=#fff2cc;strokeColor=#d6b656;" parent="1" vertex="1">
          <mxGeometry x="380" y="190" width="80" height="80" as="geometry" />
        </mxCell>
        <mxCell id="7YHZf2KEgaN3K6T-sw89-28" style="edgeStyle=orthogonalEdgeStyle;orthogonalLoop=1;jettySize=auto;html=1;exitX=0.5;exitY=1;exitDx=0;exitDy=0;entryX=0;entryY=0.5;entryDx=0;entryDy=0;" parent="1" source="7YHZf2KEgaN3K6T-sw89-13" target="7YHZf2KEgaN3K6T-sw89-22" edge="1">
          <mxGeometry relative="1" as="geometry" />
        </mxCell>
        <mxCell id="7YHZf2KEgaN3K6T-sw89-13" value="소셜로그인" style="whiteSpace=wrap;html=1;fillColor=#fff2cc;strokeColor=#d6b656;" parent="1" vertex="1">
          <mxGeometry x="294" y="310" width="120" height="60" as="geometry" />
        </mxCell>
        <mxCell id="7YHZf2KEgaN3K6T-sw89-14" style="edgeStyle=orthogonalEdgeStyle;orthogonalLoop=1;jettySize=auto;html=1;exitX=0;exitY=0.5;exitDx=0;exitDy=0;" parent="1" source="7YHZf2KEgaN3K6T-sw89-7" target="7YHZf2KEgaN3K6T-sw89-13" edge="1">
          <mxGeometry relative="1" as="geometry">
            <mxPoint x="370" y="255" as="sourcePoint" />
            <mxPoint x="330" y="360" as="targetPoint" />
            <Array as="points">
              <mxPoint x="350" y="230" />
            </Array>
          </mxGeometry>
        </mxCell>
        <mxCell id="7YHZf2KEgaN3K6T-sw89-18" style="edgeStyle=orthogonalEdgeStyle;orthogonalLoop=1;jettySize=auto;html=1;exitX=0.5;exitY=0;exitDx=0;exitDy=0;entryX=1;entryY=0.5;entryDx=0;entryDy=0;" parent="1" source="7YHZf2KEgaN3K6T-sw89-15" target="7YHZf2KEgaN3K6T-sw89-5" edge="1">
          <mxGeometry relative="1" as="geometry">
            <Array as="points">
              <mxPoint x="680" y="395" />
              <mxPoint x="680" y="230" />
            </Array>
          </mxGeometry>
        </mxCell>
        <mxCell id="7YHZf2KEgaN3K6T-sw89-23" value="" style="edgeStyle=orthogonalEdgeStyle;orthogonalLoop=1;jettySize=auto;html=1;" parent="1" source="7YHZf2KEgaN3K6T-sw89-15" target="7YHZf2KEgaN3K6T-sw89-22" edge="1">
          <mxGeometry relative="1" as="geometry" />
        </mxCell>
        <mxCell id="7YHZf2KEgaN3K6T-sw89-15" value="ID/PW 체크" style="rhombus;whiteSpace=wrap;html=1;direction=south;fillColor=#fff2cc;strokeColor=#d6b656;" parent="1" vertex="1">
          <mxGeometry x="540" y="355" width="80" height="80" as="geometry" />
        </mxCell>
        <mxCell id="7YHZf2KEgaN3K6T-sw89-19" value="No" style="text;html=1;strokeColor=none;fillColor=none;align=center;verticalAlign=middle;whiteSpace=wrap;" parent="1" vertex="1">
          <mxGeometry x="640" y="315" width="110" height="20" as="geometry" />
        </mxCell>
        <mxCell id="7YHZf2KEgaN3K6T-sw89-27" value="" style="edgeStyle=orthogonalEdgeStyle;orthogonalLoop=1;jettySize=auto;html=1;" parent="1" source="7YHZf2KEgaN3K6T-sw89-22" target="7YHZf2KEgaN3K6T-sw89-26" edge="1">
          <mxGeometry relative="1" as="geometry" />
        </mxCell>
        <mxCell id="7YHZf2KEgaN3K6T-sw89-22" value="token 발급" style="whiteSpace=wrap;html=1;fillColor=#fff2cc;strokeColor=#d6b656;" parent="1" vertex="1">
          <mxGeometry x="520" y="525" width="120" height="60" as="geometry" />
        </mxCell>
        <mxCell id="7YHZf2KEgaN3K6T-sw89-24" value="Yes" style="text;html=1;strokeColor=none;fillColor=none;align=center;verticalAlign=middle;whiteSpace=wrap;" parent="1" vertex="1">
          <mxGeometry x="460" y="200" width="40" height="20" as="geometry" />
        </mxCell>
        <mxCell id="7YHZf2KEgaN3K6T-sw89-25" value="Yes" style="text;html=1;strokeColor=none;fillColor=none;align=center;verticalAlign=middle;whiteSpace=wrap;" parent="1" vertex="1">
          <mxGeometry x="580" y="460" width="40" height="20" as="geometry" />
        </mxCell>
        <mxCell id="7YHZf2KEgaN3K6T-sw89-26" value="메인페이지" style="whiteSpace=wrap;html=1;fillColor=#fff2cc;strokeColor=#d6b656;" parent="1" vertex="1">
          <mxGeometry x="520" y="665" width="120" height="60" as="geometry" />
        </mxCell>
        <mxCell id="7YHZf2KEgaN3K6T-sw89-30" value="No" style="text;html=1;strokeColor=none;fillColor=none;align=center;verticalAlign=middle;whiteSpace=wrap;" parent="1" vertex="1">
          <mxGeometry x="330" y="200" width="40" height="20" as="geometry" />
        </mxCell>
        <mxCell id="7YHZf2KEgaN3K6T-sw89-34" value="" style="edgeStyle=orthogonalEdgeStyle;orthogonalLoop=1;jettySize=auto;html=1;" parent="1" source="7YHZf2KEgaN3K6T-sw89-31" target="7YHZf2KEgaN3K6T-sw89-33" edge="1">
          <mxGeometry relative="1" as="geometry" />
        </mxCell>
        <mxCell id="7YHZf2KEgaN3K6T-sw89-31" value="이메일인증" style="whiteSpace=wrap;html=1;fillColor=#fff2cc;strokeColor=#d6b656;" parent="1" vertex="1">
          <mxGeometry x="150" y="295" width="120" height="60" as="geometry" />
        </mxCell>
        <mxCell id="7YHZf2KEgaN3K6T-sw89-35" style="edgeStyle=orthogonalEdgeStyle;orthogonalLoop=1;jettySize=auto;html=1;exitX=0;exitY=0.5;exitDx=0;exitDy=0;entryX=0;entryY=0.5;entryDx=0;entryDy=0;" parent="1" source="7YHZf2KEgaN3K6T-sw89-33" target="7YHZf2KEgaN3K6T-sw89-31" edge="1">
          <mxGeometry relative="1" as="geometry">
            <Array as="points">
              <mxPoint x="120" y="420" />
              <mxPoint x="120" y="325" />
            </Array>
          </mxGeometry>
        </mxCell>
        <mxCell id="7YHZf2KEgaN3K6T-sw89-40" value="" style="edgeStyle=orthogonalEdgeStyle;orthogonalLoop=1;jettySize=auto;html=1;" parent="1" source="7YHZf2KEgaN3K6T-sw89-33" target="7YHZf2KEgaN3K6T-sw89-39" edge="1">
          <mxGeometry relative="1" as="geometry" />
        </mxCell>
        <mxCell id="7YHZf2KEgaN3K6T-sw89-33" value="인증번호" style="rhombus;whiteSpace=wrap;html=1;fillColor=#fff2cc;strokeColor=#d6b656;" parent="1" vertex="1">
          <mxGeometry x="170" y="380" width="80" height="80" as="geometry" />
        </mxCell>
        <mxCell id="7YHZf2KEgaN3K6T-sw89-36" value="No" style="text;html=1;strokeColor=none;fillColor=none;align=center;verticalAlign=middle;whiteSpace=wrap;" parent="1" vertex="1">
          <mxGeometry x="80" y="370" width="40" height="20" as="geometry" />
        </mxCell>
        <mxCell id="7YHZf2KEgaN3K6T-sw89-42" value="" style="edgeStyle=orthogonalEdgeStyle;orthogonalLoop=1;jettySize=auto;html=1;" parent="1" source="7YHZf2KEgaN3K6T-sw89-39" target="7YHZf2KEgaN3K6T-sw89-41" edge="1">
          <mxGeometry relative="1" as="geometry" />
        </mxCell>
        <mxCell id="7YHZf2KEgaN3K6T-sw89-39" value="회원정보 입력" style="whiteSpace=wrap;html=1;fillColor=#fff2cc;strokeColor=#d6b656;" parent="1" vertex="1">
          <mxGeometry x="150" y="480" width="120" height="60" as="geometry" />
        </mxCell>
        <mxCell id="7YHZf2KEgaN3K6T-sw89-43" style="edgeStyle=orthogonalEdgeStyle;orthogonalLoop=1;jettySize=auto;html=1;exitX=0;exitY=0.5;exitDx=0;exitDy=0;entryX=0;entryY=0.5;entryDx=0;entryDy=0;" parent="1" source="7YHZf2KEgaN3K6T-sw89-41" target="7YHZf2KEgaN3K6T-sw89-39" edge="1">
          <mxGeometry relative="1" as="geometry">
            <Array as="points">
              <mxPoint x="120" y="610" />
              <mxPoint x="120" y="510" />
            </Array>
          </mxGeometry>
        </mxCell>
        <mxCell id="7YHZf2KEgaN3K6T-sw89-47" value="" style="edgeStyle=orthogonalEdgeStyle;orthogonalLoop=1;jettySize=auto;html=1;" parent="1" source="7YHZf2KEgaN3K6T-sw89-41" target="7YHZf2KEgaN3K6T-sw89-46" edge="1">
          <mxGeometry relative="1" as="geometry" />
        </mxCell>
        <mxCell id="7YHZf2KEgaN3K6T-sw89-41" value="유효성 검사" style="rhombus;whiteSpace=wrap;html=1;fillColor=#fff2cc;strokeColor=#d6b656;" parent="1" vertex="1">
          <mxGeometry x="170" y="570" width="80" height="80" as="geometry" />
        </mxCell>
        <mxCell id="7YHZf2KEgaN3K6T-sw89-44" value="No" style="text;html=1;strokeColor=none;fillColor=none;align=center;verticalAlign=middle;whiteSpace=wrap;" parent="1" vertex="1">
          <mxGeometry x="80" y="550" width="40" height="20" as="geometry" />
        </mxCell>
        <mxCell id="7YHZf2KEgaN3K6T-sw89-49" value="" style="edgeStyle=orthogonalEdgeStyle;orthogonalLoop=1;jettySize=auto;html=1;" parent="1" source="7YHZf2KEgaN3K6T-sw89-46" target="7YHZf2KEgaN3K6T-sw89-48" edge="1">
          <mxGeometry relative="1" as="geometry" />
        </mxCell>
        <mxCell id="7YHZf2KEgaN3K6T-sw89-46" value="회원가입 완료" style="whiteSpace=wrap;html=1;fillColor=#fff2cc;strokeColor=#d6b656;" parent="1" vertex="1">
          <mxGeometry x="150" y="675" width="120" height="60" as="geometry" />
        </mxCell>
        <mxCell id="7YHZf2KEgaN3K6T-sw89-48" value="로그인 페이지" style="whiteSpace=wrap;html=1;fillColor=#fff2cc;strokeColor=#d6b656;" parent="1" vertex="1">
          <mxGeometry x="150" y="770" width="120" height="60" as="geometry" />
        </mxCell>
        <mxCell id="7YHZf2KEgaN3K6T-sw89-50" value="Yes" style="text;html=1;strokeColor=none;fillColor=none;align=center;verticalAlign=middle;whiteSpace=wrap;" parent="1" vertex="1">
          <mxGeometry x="210" y="460" width="40" height="20" as="geometry" />
        </mxCell>
        <mxCell id="7YHZf2KEgaN3K6T-sw89-51" value="Yes" style="text;html=1;strokeColor=none;fillColor=none;align=center;verticalAlign=middle;whiteSpace=wrap;" parent="1" vertex="1">
          <mxGeometry x="210" y="650" width="40" height="20" as="geometry" />
        </mxCell>
        <mxCell id="TYSPnupi3gkR3naTOdOy-3" value="" style="edgeStyle=orthogonalEdgeStyle;rounded=0;orthogonalLoop=1;jettySize=auto;html=1;" parent="1" source="TYSPnupi3gkR3naTOdOy-1" target="TYSPnupi3gkR3naTOdOy-2" edge="1">
          <mxGeometry relative="1" as="geometry" />
        </mxCell>
        <mxCell id="TYSPnupi3gkR3naTOdOy-16" value="" style="edgeStyle=orthogonalEdgeStyle;rounded=0;orthogonalLoop=1;jettySize=auto;html=1;" parent="1" source="TYSPnupi3gkR3naTOdOy-1" target="TYSPnupi3gkR3naTOdOy-15" edge="1">
          <mxGeometry relative="1" as="geometry" />
        </mxCell>
        <mxCell id="TYSPnupi3gkR3naTOdOy-1" value="로그인 페이지" style="rounded=0;whiteSpace=wrap;html=1;fillColor=#fff2cc;strokeColor=#d6b656;" parent="1" vertex="1">
          <mxGeometry x="357" y="977" width="120" height="60" as="geometry" />
        </mxCell>
        <mxCell id="TYSPnupi3gkR3naTOdOy-11" value="" style="edgeStyle=orthogonalEdgeStyle;rounded=0;orthogonalLoop=1;jettySize=auto;html=1;" parent="1" source="TYSPnupi3gkR3naTOdOy-2" target="TYSPnupi3gkR3naTOdOy-10" edge="1">
          <mxGeometry relative="1" as="geometry" />
        </mxCell>
        <mxCell id="TYSPnupi3gkR3naTOdOy-2" value="이메일 찾기" style="rounded=0;whiteSpace=wrap;html=1;fillColor=#fff2cc;strokeColor=#d6b656;" parent="1" vertex="1">
          <mxGeometry x="357" y="1117" width="120" height="60" as="geometry" />
        </mxCell>
        <mxCell id="TYSPnupi3gkR3naTOdOy-12" style="edgeStyle=orthogonalEdgeStyle;rounded=0;orthogonalLoop=1;jettySize=auto;html=1;entryX=0;entryY=0.5;entryDx=0;entryDy=0;" parent="1" source="TYSPnupi3gkR3naTOdOy-10" target="TYSPnupi3gkR3naTOdOy-2" edge="1">
          <mxGeometry relative="1" as="geometry">
            <Array as="points">
              <mxPoint x="318" y="1265" />
              <mxPoint x="318" y="1147" />
            </Array>
          </mxGeometry>
        </mxCell>
        <mxCell id="TYSPnupi3gkR3naTOdOy-14" value="" style="edgeStyle=orthogonalEdgeStyle;rounded=0;orthogonalLoop=1;jettySize=auto;html=1;" parent="1" source="TYSPnupi3gkR3naTOdOy-10" edge="1">
          <mxGeometry relative="1" as="geometry">
            <mxPoint x="417" y="1380" as="targetPoint" />
          </mxGeometry>
        </mxCell>
        <mxCell id="TYSPnupi3gkR3naTOdOy-10" value="닉네임 검사" style="rhombus;whiteSpace=wrap;html=1;rounded=0;fillColor=#fff2cc;strokeColor=#d6b656;" parent="1" vertex="1">
          <mxGeometry x="377" y="1225" width="80" height="80" as="geometry" />
        </mxCell>
        <mxCell id="TYSPnupi3gkR3naTOdOy-18" value="" style="edgeStyle=orthogonalEdgeStyle;rounded=0;orthogonalLoop=1;jettySize=auto;html=1;" parent="1" source="TYSPnupi3gkR3naTOdOy-15" target="TYSPnupi3gkR3naTOdOy-17" edge="1">
          <mxGeometry relative="1" as="geometry" />
        </mxCell>
        <mxCell id="TYSPnupi3gkR3naTOdOy-15" value="비밀번호 찾기" style="rounded=0;whiteSpace=wrap;html=1;fillColor=#fff2cc;strokeColor=#d6b656;" parent="1" vertex="1">
          <mxGeometry x="536" y="1057" width="120" height="60" as="geometry" />
        </mxCell>
        <mxCell id="TYSPnupi3gkR3naTOdOy-20" value="" style="edgeStyle=orthogonalEdgeStyle;rounded=0;orthogonalLoop=1;jettySize=auto;html=1;" parent="1" source="TYSPnupi3gkR3naTOdOy-17" target="TYSPnupi3gkR3naTOdOy-19" edge="1">
          <mxGeometry relative="1" as="geometry" />
        </mxCell>
        <mxCell id="TYSPnupi3gkR3naTOdOy-17" value="이메일 인증" style="rounded=0;whiteSpace=wrap;html=1;fillColor=#fff2cc;strokeColor=#d6b656;" parent="1" vertex="1">
          <mxGeometry x="536" y="1157" width="120" height="60" as="geometry" />
        </mxCell>
        <mxCell id="TYSPnupi3gkR3naTOdOy-21" style="edgeStyle=orthogonalEdgeStyle;rounded=0;orthogonalLoop=1;jettySize=auto;html=1;entryX=1;entryY=0.5;entryDx=0;entryDy=0;" parent="1" source="TYSPnupi3gkR3naTOdOy-19" target="TYSPnupi3gkR3naTOdOy-17" edge="1">
          <mxGeometry relative="1" as="geometry">
            <Array as="points">
              <mxPoint x="695" y="1304" />
              <mxPoint x="695" y="1187" />
            </Array>
          </mxGeometry>
        </mxCell>
        <mxCell id="TYSPnupi3gkR3naTOdOy-26" value="" style="edgeStyle=orthogonalEdgeStyle;rounded=0;orthogonalLoop=1;jettySize=auto;html=1;" parent="1" source="TYSPnupi3gkR3naTOdOy-19" target="TYSPnupi3gkR3naTOdOy-25" edge="1">
          <mxGeometry relative="1" as="geometry" />
        </mxCell>
        <mxCell id="TYSPnupi3gkR3naTOdOy-19" value="인증번호" style="rhombus;whiteSpace=wrap;html=1;rounded=0;fillColor=#fff2cc;strokeColor=#d6b656;" parent="1" vertex="1">
          <mxGeometry x="556" y="1264" width="80" height="80" as="geometry" />
        </mxCell>
        <mxCell id="TYSPnupi3gkR3naTOdOy-22" value="No" style="text;html=1;strokeColor=none;fillColor=none;align=center;verticalAlign=middle;whiteSpace=wrap;rounded=0;" parent="1" vertex="1">
          <mxGeometry x="279" y="1197" width="40" height="20" as="geometry" />
        </mxCell>
        <mxCell id="TYSPnupi3gkR3naTOdOy-23" value="No" style="text;html=1;strokeColor=none;fillColor=none;align=center;verticalAlign=middle;whiteSpace=wrap;rounded=0;" parent="1" vertex="1">
          <mxGeometry x="686" y="1235" width="40" height="20" as="geometry" />
        </mxCell>
        <mxCell id="TYSPnupi3gkR3naTOdOy-24" value="Yes" style="text;html=1;strokeColor=none;fillColor=none;align=center;verticalAlign=middle;whiteSpace=wrap;rounded=0;" parent="1" vertex="1">
          <mxGeometry x="377" y="1318" width="40" height="20" as="geometry" />
        </mxCell>
        <mxCell id="TYSPnupi3gkR3naTOdOy-30" value="" style="edgeStyle=orthogonalEdgeStyle;rounded=0;orthogonalLoop=1;jettySize=auto;html=1;" parent="1" source="TYSPnupi3gkR3naTOdOy-25" target="TYSPnupi3gkR3naTOdOy-29" edge="1">
          <mxGeometry relative="1" as="geometry" />
        </mxCell>
        <mxCell id="TYSPnupi3gkR3naTOdOy-25" value="새로운 비밀번호 입력" style="whiteSpace=wrap;html=1;rounded=0;fillColor=#fff2cc;strokeColor=#d6b656;" parent="1" vertex="1">
          <mxGeometry x="536" y="1387" width="120" height="60" as="geometry" />
        </mxCell>
        <mxCell id="TYSPnupi3gkR3naTOdOy-27" style="edgeStyle=orthogonalEdgeStyle;rounded=0;orthogonalLoop=1;jettySize=auto;html=1;exitX=0.5;exitY=1;exitDx=0;exitDy=0;" parent="1" source="TYSPnupi3gkR3naTOdOy-23" target="TYSPnupi3gkR3naTOdOy-23" edge="1">
          <mxGeometry relative="1" as="geometry" />
        </mxCell>
        <mxCell id="TYSPnupi3gkR3naTOdOy-28" value="Yes" style="text;html=1;strokeColor=none;fillColor=none;align=center;verticalAlign=middle;whiteSpace=wrap;rounded=0;" parent="1" vertex="1">
          <mxGeometry x="602" y="1352" width="40" height="20" as="geometry" />
        </mxCell>
        <mxCell id="TYSPnupi3gkR3naTOdOy-32" value="" style="edgeStyle=orthogonalEdgeStyle;rounded=0;orthogonalLoop=1;jettySize=auto;html=1;" parent="1" source="TYSPnupi3gkR3naTOdOy-29" target="TYSPnupi3gkR3naTOdOy-31" edge="1">
          <mxGeometry relative="1" as="geometry" />
        </mxCell>
        <mxCell id="TYSPnupi3gkR3naTOdOy-29" value="유효성 검사" style="rhombus;whiteSpace=wrap;html=1;rounded=0;fillColor=#fff2cc;strokeColor=#d6b656;" parent="1" vertex="1">
          <mxGeometry x="556" y="1489" width="80" height="80" as="geometry" />
        </mxCell>
        <mxCell id="TYSPnupi3gkR3naTOdOy-31" value="새로운 비밀번호 등록" style="whiteSpace=wrap;html=1;rounded=0;fillColor=#fff2cc;strokeColor=#d6b656;" parent="1" vertex="1">
          <mxGeometry x="536" y="1608" width="120" height="60" as="geometry" />
        </mxCell>
        <mxCell id="TYSPnupi3gkR3naTOdOy-35" value="이메일 반환" style="rounded=0;whiteSpace=wrap;html=1;fillColor=#fff2cc;strokeColor=#d6b656;" parent="1" vertex="1">
          <mxGeometry x="357" y="1382" width="120" height="60" as="geometry" />
        </mxCell>
        <mxCell id="1OkF6w-JCfB84k5V8l7--2" value="로그인/회원가입 flow chart" style="text;html=1;strokeColor=none;fillColor=none;align=center;verticalAlign=middle;whiteSpace=wrap;rounded=0;" vertex="1" parent="1">
          <mxGeometry x="179.5" y="113" width="101" height="20" as="geometry" />
        </mxCell>
        <mxCell id="1OkF6w-JCfB84k5V8l7--3" value="이메일/비밀번호 찾기 flow chart" style="text;html=1;align=center;verticalAlign=middle;whiteSpace=wrap;rounded=0;" vertex="1" parent="1">
          <mxGeometry x="360" y="937" width="123" height="20" as="geometry" />
        </mxCell>
      </root>
    </mxGraphModel>
  </diagram>
</mxfile>
